<?xml version="1.0" encoding="UTF-8"?>
<svg id="depressionen" xmlns="http://www.w3.org/2000/svg" version="1.1" viewBox="0 0 250 350">
  <!-- Generator: Adobe Illustrator 30.2.1, SVG Export Plug-In . SVG Version: 2.1.1 Build 1)  -->
  <defs>
    <style>
      .st0 {
        fill: none;
        stroke: #000;
        stroke-miterlimit: 10;
      }
    </style>
  </defs>
  <path class="st0" d="M188,353.2c-2-50,1.6-100,3.1-150s-.8-91.9-21.8-141.1c-7.6-17.9-18.5-26.6-30.6-25-16.3,2.2-47.1,41.1-46.1,66.1,0,1.8.3,3.7,1.8,5,2.3,2,6.5,1.1,8.6-1s2.6-5,3.1-7.7c-20.3-4-42.8.9-58.3,12.7-15.5,11.8-23.7,30.2-21.3,47.8.2,1.8.8,3.8,2.7,4.6,2.7,1.2,5.7-1.1,7.5-3.2,9.1-10.8,14.9-23.4,23-34.8,8.1-11.4,19.7-22,35-25.2-2.1,10-9.4,18.5-15.2,27.4-14.1,21.5-19.8,47-16,71.4.7,4.4,2.9,9.7,8.1,10.1,3.1.2,5.9-1.6,8-3.5,10.2-9.4,11.7-23.3,12.9-36,2.1-22.1,5-44.1,8.6-66,12.7,3.2,18.9,15.5,20.3,26.6s0,22.8,4.8,33.3c1.4,3,3.8,6.1,7.6,6.4,2.7.2,5.2-1.1,7.2-2.5,17.3-12,18.9-34.7,10.9-52.5-1.4-3-3-6.1-5.8-8.3-9.3-7.3-25.6-1.8-36.3-7.6,10.5-7.7,27.7-4.3,37.5,4s14,20.1,17.9,31.3c9.4-5.4,8.1-17.3,5.7-26.7-1.9-7.3-4.4-15.4-11.9-19.4-4.4-2.3-9.8-2.9-14.9-3.3-12.7-1.1-27.6-1.5-35.8,6.8-1.8,1.9-3.5,4.2-6.2,4.8-2,.5-4.2-.2-6.1-.9-7.1-2.9-12.8-7.7-19.6-11s-15.8-4.9-22.2-1.2c-4.5,2.6-6.7,7.1-8.5,11.5-6.2,14.8-10.3,30.2-12.2,45.8-.6,5.1.4,11.9,6.4,12.8,6.1.9,9.8-5.5,11.3-10.6,5.8-19.2,14.7-40,35.3-49.5,6.6-3.1,17.2-3.5,19.6,2.5,1.4,3.6-1.1,7.4-3,10.9-11.4,19.8-4.4,46,16,59.7,9-18.6,12.1-39.3,8.7-59.2-.7-3.9-1.7-8-5.1-10.6-3.4-2.6-8.3-3.2-12.8-3.6-6.9-.6-14.2-1.2-20.5,1.4s-10.4,9.7-6.5,14.6c3.9,5,12.8,4.5,19.5,2.5,6.7-1.9,14-6.3,13.2-12.2-.3-1.9-2.4-4.1-4.5-3.3s1.1,4.1,1.7,2.2"/>
  <path class="st0" d="M188,349.1c-2.7-21.5-5.3-43.1-12.2-63.6-2.3-7-5.4-14.2-11.2-18.8-1.8-1.4-4.2-2.5-6.2-1.5-1.5.7-2.2,2.4-2.8,4-4.6,13.4-2.6,28.5,3.4,41.4,6,12.8,15.9,23.6,26.9,32.5,2.4-18.2,1.5-36.7,4.4-54.9,2.9-18.1,10.5-36.7,25.8-46.9,4.7,33.5-8.2,69.1-33.5,91.7,1.3.2,2.4,1.2,2.8,2.5"/>
</svg>