<?xml version="1.0" encoding="UTF-8"?>
<svg id="angst" xmlns="http://www.w3.org/2000/svg" version="1.1" viewBox="0 0 250 350">
  <!-- Generator: Adobe Illustrator 30.2.1, SVG Export Plug-In . SVG Version: 2.1.1 Build 1)  -->
  <defs>
    <style>
      .st0 {
        fill: none;
        stroke: #000;
        stroke-miterlimit: 10;
      }
    </style>
  </defs>
  <path class="st0" d="M164.8,350.6c.5-83.6,1-167.2-3.4-250.6-.2-4.5-.6-9.3-3.5-12.7s-9.3-4-11.4,0c-1.8,3.4,1,7.8,4.6,9.2s7.7.6,11.5-.3c2.2-.5,4.6-1.1,5.7-3.1,1-1.7.6-4-.5-5.7-3.2-5.3-10.9-6.3-16.7-4.1-5.8,2.2-10.4,6.7-15.3,10.5-12.7,9.9-28.1,15.4-43.2,20.8-5.6,2-13.7,2.9-15.7-2.7-.8-2.3,0-5,1.1-7.1,2.7-5.1,7.3-8.9,12-12.2,6.1-4.4,13.1-8.4,20.6-8.4,4.7,0,9.2,1.5,13.8,2.3,7.8,1.2,15.9,0,23.1-3.2,3.1-1.5,6.5-4.9,4.7-7.8-1.1-1.8-3.6-2.1-5.7-2.2-9.8-.5-19.5-1-29.3-1.4-4.6-.2-9.9-.7-12.8-4.3-4.2-5.2-.7-13.3,4.7-17.2,7-5.1,16.8-5.8,24.5-1.9s12.9,12.3,12.9,20.9c0,2.9-.5,5.9.7,8.6s5.2,4.1,7,1.9c.7-.8.9-1.9,1-3,1-8.7-1.2-17.9,2.2-25.9,4.4-10.4,19.9-14.8,27.9-6.8,1.7,1.7,3,3.9,3.2,6.3.4,5.3-4.6,9.2-9.2,11.9-8.3,5-16.9,9.4-25.8,13.3,2.8,3.2,8,1.3,11.7-.6,14.8-7.5,31.7-12.6,47.9-9,16.2,3.6,30.7,18.1,29.8,34.7,0,1.7-.5,3.7-2,4.5-.9.5-2.1.5-3.1.5-15.6-1.1-28.7-11.6-41.8-20.1s-29.8-15.5-44-9.1c1,4.5,6,6.7,10.4,8.2,16.5,5.8,32.6,13,47.9,21.5,10.1,5.6,20.1,11.9,27.4,20.8,2.8,3.4,5.2,8.2,2.7,11.9-1.4,2-3.9,3-6.4,3.3-10.1,1.6-20.2-4-27.2-11.4-7-7.5-11.6-16.8-16.8-25.6s-11.6-17.4-20.7-22.2c-1.4-.7-3-1.4-4.6-.9-3.4,1.1-2.8,6.1-1.3,9.3,9.2,19.2,28.2,31.8,39.8,49.7,1.7,2.6,3.2,6,1.3,8.5-2,2.6-6.1,1.8-9.1.4-8.6-4.1-15.6-11.4-19.4-20.2-4.2-9.7-4.3-20.6-7.6-30.6-.9-2.9-2.5-6.1-5.5-6.7-3.1-.7-6.1,2-7.1,5s-.8,6.3-1.1,9.4c-.4,5-2.2,9.8-5.1,13.9-1.7,2.4-4,4.6-6.8,5-4,.6-7.7-2.3-10.5-5.3-3.3-3.4-6.4-8-5.2-12.5.9-3.5,4.2-5.9,7.3-7.9,7.5-5,15.1-10,22.6-15"/>
  <path class="st0" d="M108.2,350.7c-9.8-53.6-17.8-107.5-25.8-161.4-4.1-27.5-8.2-55.1-9-82.9-.5-16.9.3-33.7,1-50.6,0-1.1.1-2.4.9-3.2.7-.7,1.7-.9,2.7-1,8.4-1.3,17.1-1.2,25.5.3-4.8,6.2-11.9,10.6-19.6,12.1-3.9.8-8.1.8-11.5-1.3s-5.4-6.7-3.5-10.2c2.2-4.1,7.8-4.3,12.4-5s10.1-3.9,8.9-8.4c-.9-3.6-5.4-4.7-9-4.9-17.9-.9-36,5.5-49.3,17.5-7,6.3-13,15.5-10.4,24.5.6,2.2,2.4,4.7,4.7,4.4,1.5-.2,2.6-1.4,3.5-2.6,9.2-11.7,17.2-25.9,31.1-31.1,3.3-1.2,8.4-.8,8.6,2.7,0,1.1-.5,2.2-1.1,3.2-3.4,5.6-9.1,9.3-14.1,13.5-11.3,9.7-19.2,23.3-22.1,37.9-1,5.2-1.1,11.5,3.2,14.6,5.3,4,13-.1,16.9-5.5,11.5-16.3,5.1-41.6,19.1-55.9,1.1-1.1,2.3-2.1,3.7-2.3,3.7-.7,6.4,3.6,7.3,7.2,1.9,8.2.6,16.8,1.8,25.2s6,17.3,14.3,18.8c10.3,1.8,18.9-9.9,17.6-20.3s-9.3-18.5-17.7-24.6c-1.9-1.3-4-3-3.9-5.3.1-2.6,3.2-4.1,5.7-3.7s4.6,2.2,6.5,3.9c7.1,6.2,14.8,11.8,22.8,16.7,3.4,2.1,8.5,3.8,10.8.5.7-1,.9-2.3,1-3.6,1-12.1-6.8-24.4-18.2-28.7s-25.4-.1-32.6,9.7c-2.1-9.9,8.2-18.6,18.2-20.1s20.2,1.3,30.3,1.1c.7,0,1.6,0,2.1-.7.9-1,0-2.5-1-3.5-8.2-8.3-21.1-11.6-32.2-8.3-11.2,3.3-20.2,13-22.7,24.4-5.1-4.8-4.4-13-7.4-19.4-3.4-7.2-11.8-11.3-19.8-11.2s-15.6,3.6-22.1,8.3c11.3,11.7,31,10.5,43.6,20.8,2,1.6,3.8,4.6,2.1,6.5-1,1.1-2.7,1.1-4.1,1-10.5-1.4-18.2-10.4-27.6-15.2-12-6.1-27.3-4.8-38.1,3.2-4.3,3.2-8.1,8.4-6.3,13.5,1.6,4.5,6.8,6.5,11.5,7.1,5.9.8,12,.4,17.7-1.3,8.4-2.5,16-7.5,24.7-8.7,8.7-1.1,19.3,4,19.3,12.8"/>
  <path class="st0" d="M139.3,350.6c-7.7-44.8-11.2-90.4-10.5-135.8,0-3.2,0-6.6-1.7-9.2s-6-3.8-8.1-1.4c-1.6,1.8-1.1,4.9.6,6.7s4.2,2.5,6.6,2.9c2,.3,4.1.4,5.9-.4,4.7-2.1,4.5-9.7.3-12.7s-10.3-1.8-14.3,1.4c-2.4,1.9-4.4,4.4-7.3,5.4-4.4,1.5-9-1.3-13.6-1.7-5.3-.4-10.5,2.5-13.9,6.6s-5.3,9.2-6.8,14.3c-.7,2.3-1,5.4,1.2,6.6.9.4,1.9.4,2.8.2,6.6-1.1,11.1-7.2,15.6-12.2s11-9.9,17.4-7.7c.9.3,1.7.8,2.2,1.6.9,1.6-.3,3.5-1.5,4.9-3.6,4-8.1,7-11.9,10.8s-7.1,8.6-7.2,14c0,2.9,1.2,6.3,4.1,7.1,4.3,1.2,7.4-4.1,8.4-8.4,2.6-11.4,3.3-24.7,12.5-31.9.7-.5,1.5-1.1,2.3-1.2,3-.4,4.4,3.6,4.5,6.6.2,8.3-1.4,17.2,2.8,24.3,3,5.1,8.8,8.4,14.8,8.3,1.8,0,3.6-.4,5-1.5,1.2-1,1.9-2.5,2.2-4,1.4-6.5-2.6-12.8-6.5-18.2-3.8-5.4-7.7-10.8-11.5-16.2,13.5-1.1,23.8,11.6,36.5,16,3.8,1.3,8.1,1.8,11.8.2s6.3-6,4.9-9.8c-.6-1.6-1.8-2.9-2.9-4.1-5.8-5.8-12.9-10.7-21-12.5-8-1.8-17.1-.3-23.2,5.3-1.1,1-2.1,2.1-3.5,2.5s-3.3-.2-3.5-1.6c-.1-.6,0-1.2.3-1.7,2.5-5.8,10.4-6.1,16.6-6,7.7.2,15.5-.3,23.1-1.4,3.5-.5,7.4-1.5,9.2-4.5,2-3.5.1-7.9-2.5-10.9-6.7-7.8-18.3-10.6-28.1-7.6s-17.7,11.3-21.1,21c-.9,2.5-2.2,5.7-4.9,5.7-1.3-11.5,7.2-21.7,9.4-33.1.3-1.8.5-3.7-.2-5.3-1.4-3-5.6-3.9-8.7-2.5s-5,4.5-6.2,7.6c-4.7,11.6-1.9,24.9,1.4,37-8.3-4.9-9.1-16.6-14.6-24.6-1.9-2.9-5.1-5.5-8.5-4.9-1.7.3-3.2,1.3-4.6,2.3-3.3,2.5-6.6,5.3-8.4,9s-1.6,8.7,1.3,11.6c3.7,3.7,9.7,2.9,14.9,3.9,5.5,1.1,10.5,4.8,13.2,9.7-.4,1.1-.9,2.2-1.3,3.3"/>
</svg>