<?xml version="1.0" encoding="UTF-8"?>
<svg id="belastung" xmlns="http://www.w3.org/2000/svg" version="1.1" viewBox="0 0 250 350">
  <!-- Generator: Adobe Illustrator 30.2.1, SVG Export Plug-In . SVG Version: 2.1.1 Build 1)  -->
  <defs>
    <style>
      .st0 {
        fill: none;
        stroke: #000;
        stroke-miterlimit: 10;
      }
    </style>
  </defs>
  <path class="st0" d="M111.5,350.7c3.5-33.6,7.1-67.4,5-101.1-2.5-41.8-13.5-84.9-.5-124.8.5-1.4,1-2.8,2-3.8,2.1-2,5.8-1.4,8,.6s3.2,4.9,4,7.7c-9.9,2.2-20.5,1.2-29.8-2.9,2.2-5,7.8-7.7,13.2-8s10.7,1.4,15.8,3.3c10.3,3.8,20.5,8.4,29.1,15.2,10.2,8.1,17.7,18.9,24.4,30.1,13.5,22.6,24.2,49.1,18.6,74.8-1.9,8.6-7.9,18.3-16.6,17.3-6.1-.7-10.2-6.5-12.8-12.1-10.1-22.4-6.9-48.7-14.6-72-4.2-12.9-11.6-24.4-19-35.8-4.3-6.7-9.1-13.8-16.6-16.5,6.9,20.5,17.9,39.4,24.6,60s8.9,44.1-1.5,63c-1.4,2.5-3.7,5.3-6.6,4.7-2.2-.4-3.4-2.6-4.3-4.7-9.3-20.5-10.5-43.6-11.5-66.2-.7-14.6-1.3-29.2-2-43.9-.3-5.9-1-12.6-5.9-15.9-3.9-2.6-9.4-1.9-13.4.7-4,2.6-6.8,6.6-9.3,10.6-9.5,15-16.9,32.2-16.6,50,.3,17.3,8,34.1,6.8,51.4-.4,5.2-1.8,10.8-6,13.9-7.4,5.6-18.5,0-23.3-7.9-5.8-9.7-5.8-21.6-4.7-32.8,2.2-21.1,8.4-41.8,18.1-60.7,4.5-8.8,10.2-17.6,19.2-21.8,6.2-2.9,13.4-3.3,19.1-7.2-2-4.9-7.2-8.1-12.5-8.7s-10.6,1-15.3,3.4c-9.6,4.8-17.5,12.9-22.1,22.7-6.3,13.5-6,29.2-11.2,43.2-1.1,3-3.7,6.6-6.8,5.6-1.2-.4-2.1-1.4-2.8-2.5-11.7-16-10.2-40.3,3.5-54.6s37.9-17,54.4-6.1c2,1.3,4.3,2.9,6.6,2.2,3.9-1.1,3.4-7,.9-10.3-5.1-6.7-14.2-9-22.7-9.3s-17,1-25.3-.4-16.9-6.5-18.9-14.7c-1.9-7.6,2.6-15.8,9.4-19.8s15.2-4.3,22.8-2.7c20.5,4.4,36.9,23.3,38.5,44.1.6,7.2-.2,15.4,4.7,20.8,11.3-18.8,3.7-42.7,3.5-64.6,0-9.1,2.3-19.7,10.6-23.3,4.6-2,9.9-1.2,14.5.4,10,3.5,19.1,12.1,19.6,22.7.5,10.6-7.3,19.8-15.6,26.3s-18,11.9-24,20.7c-1,1.5-1.9,3.2-1.8,5,.3,2.7,3.1,4.6,5.9,4.7s5.3-1.2,7.7-2.6c9.5-5.7,17.3-13.7,25.2-21.4,7.9-7.7,16.1-15.4,26-20.3s21.9-6.6,32-2.1c10.1,4.5,17.2,16.3,14.1,26.9-2.9,10.1-13.5,16.2-23.8,18.1-22.4,4.3-44.7-5.5-66.7-11.4-4.9-1.3-11.7-1.6-13.5,3.2-1.2,3,.7,6.6,3.4,8.3s6.1,2.1,9.4,2.2c26.5,1.4,54.9-5.1,78.6,6.8,7.4,3.7,14.6,11.2,12.3,19.1-2.2,7.6-11.7,10.1-19.6,9.9-9.1-.3-18.1-2.7-26.1-6.9-18.5-9.7-32.4-29-53-32.3-3.4-.5-8.5,1.1-7.5,4.5.4,1.2,1.5,2.1,2.6,2.7,6.2,3.7,13.4,5.6,20.4,7.1,18,4,36.5,6.5,53.3,13.9s32.4,20.7,36.8,38.5c1.1,4.5,1.2,10-2.2,13.2-4.2,3.9-11.1,2-16.1-.8-16.7-9.4-27.9-26-39.4-41.4s-25-30.9-43.5-36.2c-3.5-1-8.1-1.3-10.1,1.8-2.3,3.5.6,8,3.4,11.1,19.2,21.4,40.1,42.3,51.6,68.7,2.3,5.2,4.1,11.3,1.2,16.2-3.9,6.6-14.3,6-20,.8s-7.6-13.1-9.4-20.5c-4.4-18.6-8.8-37.3-13.3-55.9-1-4.1-2-8.3-4.4-11.7s-6.6-6-10.8-5.1c-6.5,1.3-8.9,9.3-9,15.8-.4,31.8,23.8,59.3,26.4,90.9.2,3,.2,6.4-1.7,8.7-2.4,3-7.2,3.2-10.5,1.4s-5.7-5.1-7.5-8.5c-8.2-15.3-9.2-33.6-7.5-50.9s5.7-34.4,6.8-51.7c.4-7.2-1.7-16.8-8.9-17.1-3-.2-5.8,1.6-8,3.6-12.3,11.2-12.2,30.2-11.2,46.8,1.4,23.5,2.9,47,4.3,70.5.2,2.9-.5,6.7-3.3,7-1.3.1-2.6-.8-3.6-1.6-9.1-7.6-15-18.4-18.1-29.8-5-18.4-2.9-38.7,5.8-55.7,5.6-10.9,13.9-20.9,15.8-33.1-10.5-3.1-21.8,3.4-27.9,12.5-6.1,9-8.2,20.1-10.2,30.8-2,10.7-4.4,21.8-10.9,30.6-.7.9-1.5,1.9-2.6,2.2-2.8.8-4.8-2.6-5.5-5.4-6.9-27.3,8.5-58.4,34.3-69.5,5.7-2.4,11.7-4,17.1-7-6.5-8.2-19.7-9.9-28.1-3.7-4.4,3.2-8.1,8.5-13.6,8.4-7.6-.2-10.3-9.9-10.8-17.5-.1-2-.2-4.1.9-5.7,1.7-2.3,5-2.3,7.8-1.9,9.1,1.1,18.1,3.4,26.6,6.8,7.5,3,17.4,6.4,22.5.2,4.9-5.9.2-14.9-5.3-20.2s-12.6-10.7-12.8-18.3c0-2.4.8-5.1,3-6.3,3.4-1.8,7.4,1.2,9.9,4.2,8,9.8,13.1,22.1,14.3,34.7.6,5.8,2.5,13.7,8.3,13.3,1.2,0,2.3-.6,3.2-1.2,6.2-3.9,7.8-12.2,7.3-19.5s-2.2-14.7-.5-21.8,9-13.6,15.9-11.1c4.1,1.5,6.7,5.8,7.2,10.1s-.6,8.7-2,12.8c-2.5,7.1-6,13.9-10.4,20-.7,1.1-1.5,2.2-1.5,3.5.2,3,4.4,3.5,7.2,2.6,8.5-2.8,14.2-10.5,21.8-15.2,9.9-6.1,23-6.5,33.2-1,3.1,1.6,6.1,4.2,6.3,7.7.2,3.5-2.6,6.5-5.4,8.6-16.8,12.7-42.6,11.5-58.3-2.6,1.6,11.5,10.2,21,19.9,27.5,9.7,6.5,20.7,10.8,30.6,16.9,6.7,4.1,13.4,10.4,12.9,18.2-.3,3.9-2.4,7.4-5.1,10.2-7.2,7.4-18.8,9.8-28.7,6.8-9.9-3-18-10.8-22.3-20.2-4.9-10.8-5.1-23-6.9-34.7-.3-2.1-1-4.4-2.9-5.3-1.3-.6-2.9-.2-4.3.2-9.7,2.8-21.3,7.9-21.7,18-.2,5.3,3.1,10,5.6,14.7,3,5.6,5,12.1,3.5,18.3s-7.4,11.5-13.7,10.6c-7.4-1.1-11.2-9.6-11.9-17.1-1.2-13.4,3.5-27.2,12.6-37.2"/>
</svg>