<?xml version="1.0" encoding="UTF-8"?>
<svg id="lebenskriese" xmlns="http://www.w3.org/2000/svg" version="1.1" viewBox="0 0 250 350">
  <!-- Generator: Adobe Illustrator 30.2.1, SVG Export Plug-In . SVG Version: 2.1.1 Build 1)  -->
  <defs>
    <style>
      .st0 {
        fill: none;
        stroke: #000;
        stroke-miterlimit: 10;
      }
    </style>
  </defs>
  <path class="st0" d="M127.8,351.9c.1-10.2-1.5-24.8-1.9-34.6-.2-4.5,4.7-8.4,9.1-7.2-8-1.8-16.2-2.1-24.4-2.3,11.5-6.6,23.7-13.3,37-13.2-10.7-.9-21.3-2.8-31.6-5.7,11.9-1.3,23.9-1.2,35.8.3-6.3-2.8-13.3-4.2-20.2-3.8-9.2.4-5.6-15.5-6.1-22.5-.8-11.3-1.8-22.7-3-34-.4-3.8-.6-8.3,2.2-10.9,1.4-1.3,3.2-1.9,5-2.4,6.1-1.6,12.7-1.7,18.4.8s10.3,8.1,10.6,14.3c0,2.1-.3,4.3-1.6,6-2.3,3.1-6.6,3.8-10.5,4-15.2,1.1-30.6.1-45.5-2.9-3-.6-6.5-1.7-7.6-4.6-1.1-2.9,1-6,3-8.5,13.3-16,30.1-29,48.8-38-2.8,26.3-19.8,50.6-17.2,76.9,7.9-16,.5-35.1-7.9-50.8-1.5-2.7-3-5.6-3.2-8.7-.2-2.8.8-5.5,1.6-8.2,5.2-18.1,2.5-37.4-.3-56-2-13.5-4.1-27-6.1-40.4-.5-3.1-1.2-6.5-3.8-8.2-3.5-2.3-8.8.8-9.3,5s2.9,8.2,7,9.2,8.5-.4,11.9-2.9c3.4-2.5,5.9-8.2,2.3-10.4-1.5-1-3.5-.7-5.3-.3-25.4,5.4-46.6,26.9-51.6,52.3-.6,3-.9,6.1.3,8.9s4.6,4.7,7.4,3.4c1.5-.7,2.4-2.2,3.3-3.6,7.2-12.2,10.7-26.3,17.7-38.6,6.9-12.4,18.9-23.5,33.1-23.2,9.2.2,17.7,5.4,24.6,11.5,7.4,6.5,13.6,14.2,18.3,22.8,2.3,4.2,4.2,9.5,1.6,13.5-10.7,1.9-21.8-2.7-29.6-10.2-7.8-7.5-12.8-17.5-16.5-27.7-1.1-3-2-6.7.1-9.2.9-1.1,2.3-1.7,3.7-2.2,20.9-7.8,46-2.9,62.5,12,3.3,3,7.2,6.6,11.4,5.4,1.8-.5,3.3-1.8,4.4-3.3,6.4-8.1,4.2-20.9-3.2-28.2s-18.7-9.4-28.9-7.8-19.6,6.5-28.5,11.9c-8.9,5.4-17.5,11.3-27,15.2-2.1-9.5,3.2-19.2,9.8-26.4,6.6-7.2,14.8-12.9,20.7-20.7.8-1,1.5-2.1,1.7-3.4.4-2.6-1.6-5.1-3.8-6.6-6.8-4.6-16.3-3.7-23.5.3-9.6,5.4-15.8,15.5-18.5,26.2s-2.3,21.8-1.3,32.8c-8-4.2-16-8.4-23.9-12.6-3.5-1.9-7.3-3.8-11.3-3.6-7.2.2-12.5,6.9-15.9,13.3-2.9,5.3-4.1,13.9,1.6,15.7,2.2.7,4.5,0,6.6-.8,15.4-5.8,28.7-17.5,45-19.6.9-.1,1.9-.2,2.8.1,3.9,1.4,1.9,7.3-.6,10.6-11.9,15.5-22,33.8-21.4,53.3.1,3.8,1.1,8.3,4.6,9.9,5.3,2.5,10.6-3.6,12.4-9.2,3.1-9.8,2.6-20.4,3.3-30.6.8-10.3,3.2-21.2,10.6-28.3.7-.7,1.7-1.4,2.6-1.1.8.2,1.2.9,1.6,1.6,7.1,12.3,5.3,27.5,7,41.5,1,8.1,4.7,17.4,12.7,18.9,9.6,1.9,17-9.2,17.8-18.9.9-11.5-3.3-23.3-11.4-31.6-8-8.3-19.7-12.9-31.3-12.3,1.3-.2,2.7-.4,4-.7"/>
</svg>