<?xml version="1.0" encoding="UTF-8"?>
<svg id="selbstwert" xmlns="http://www.w3.org/2000/svg" version="1.1" viewBox="0 0 250 350">
  <!-- Generator: Adobe Illustrator 30.2.1, SVG Export Plug-In . SVG Version: 2.1.1 Build 1)  -->
  <defs>
    <style>
      .st0 {
        fill: none;
        stroke: #000;
        stroke-miterlimit: 10;
      }
    </style>
  </defs>
  <path class="st0" d="M73.9,103.9c15.6,20.8,24.2,32.9,45.5,47.6,1,.7,2.2,1.4,3.3.9.8-.3,1.3-1.2,1.6-2,7.9-18.2,7.6-36.2-11-42.3-13.7-4.4-28.9,0-42.6-4.4,2.6-7.5,12.3-9.3,20-8s15.5,4.4,23,2.2c9-2.7,14.3-12.5,15.9-22,.6-3.4.7-7.1-1.1-10-2.8-4.3-8.8-4.9-13.8-4-10.8,2-20.3,8.7-27.5,17.2-7.2,8.5-12.2,18.6-16.6,28.8,2.9-10.5,11.2-18.4,16.3-28,6.6-12.3,7.7-27.5,2.9-40.7-1.6-4.5-4.8-9.4-9.5-9.7-2.7-.2-5.3,1.3-7.3,3-9.3,7.8-11.6,21.6-10.6,33.8,1,12.3,4.6,24.3,4.2,36.7-2-12.1-4.1-24.3-9.5-35.3s-14.6-20.6-26.3-23.4c-1.8-.4-3.6-.7-5.4-.2-3.8,1-5.9,5.3-6.3,9.2-.8,8.5,4.4,16.6,11,21.8,6.6,5.2,14.7,8.1,22.3,11.7,3,1.4,6.4,3.4,6.9,6.8.9,5.8-6.7,8.5-12.2,10.3-19,6-31,29.1-25.2,48.6,2.7,0,4.7-2.6,6.1-5,4.4-7.8,6.8-16.7,11.2-24.5,4.4-7.8,11.6-15,20.4-15.5-3.6,21.4-22.5,38.7-22.7,60.5,0,5.7,1.4,11.8,5.7,15.6,7.9,7,21.4,1.9,26.2-7.6,4.8-9.5,3.3-21,.4-31.2s-7-20.4-7-31.1c0-1.7.6-3.9,2.3-3.9.8,0,1.5.6,2,1.3,5.8,6.9,4.1,17.3,3.3,26.4-1.1,12.3,0,24.9,3.3,36.8,1.3,4.8,3.2,9.8,7,13s10,3.9,13.4.3c3.3-3.5,2.6-9.2,1.5-13.9-5.6-25.3-15.4-49.6-28.8-71.7,1.5,2,3,4.3,3,6.9s-2.6,5.1-4.9,4.1c-1-.4-1.7-1.4-2.2-2.4-3-5.7-3-12.9.2-18.5,5.5,4.9,2.2,13.9-1.2,20.5-18.8,36.2-28.1,77-30.4,117.9s2.4,81.9,10.4,122c-3.8-16.8-6.3-33.9-7-51.1-.3-7.8-.3-15.6,1.5-23.1,1.1-4.6,3.6-9.6,8.1-10.7,3.8-.9,7.8,1.4,9.9,4.6s2.8,7.4,2.9,11.3c1,22.6-11,43.5-16.3,65.5-4.3-21.3-12.6-41.7-24.3-59.9-2.3-3.5-6.6-7.3-9.9-4.7,2.7,15.5,8,30.5,15.4,44.3,4.8,8.9,11,17.7,20.2,21.5,0-1.3,0-2.6,0-3.9"/>
  <path class="st0" d="M160,125.3c-1.2-.2-2.4-.4-3.6-.5,5.3-2.6,11.8,1.8,13.7,7.5,1.9,5.6.6,11.8-.7,17.6-1.3,5.8-2.7,12-.8,17.7,2.7,8.1,11.3,12.7,19.6,14,1.5.2,3.2.4,4.4-.7,1.1-1,1.2-2.7,1.2-4.1.2-12-.4-25.9-9.8-33.3-5.1-4.1-11.9-5.2-17.5-8.5-5.6-3.3-10.1-10.8-6.6-16.4,4.6,8.5,16,12.5,24.8,8.6,5.7-2.5,9.9-10.6,5.4-14.9-3.9-3.7-10.2-1-14.3,2.5s-8.7,7.7-13.9,6.7c.4-5.6,3.4-10.6,5.4-15.9,2-5.2,2.8-11.7-.7-16.1-2.8-3.5-8.2-4.5-12.1-2.3s-5.7,7.5-4.2,11.8c1.2,3.2,3.9,5.6,5.8,8.5,1.9,2.9,2.6,7.3,0,9.5-2.8-2-6-4.2-9.4-3.8-3.4.4-6.3,4.9-4,7.5,2.3,2.6,6.6.7,9.9,1.6,3.7,1,5.5,6.2,3.3,9.4-1.1,1.6-2.9,2.5-4.6,3.5-10.5,6.6-16.5,19.8-14.5,32.2,4.3,3.1,10.7.9,13.7-3.5,3-4.4,3.2-10.2,2.4-15.4s-2.4-10.4-2.6-15.8c-.1-2.8.2-5.7,1.8-7.9s4.9-3.4,7.2-1.9c2.5,8.2-10,16-6.5,23.8,1.1,2.4,3.5,3.9,5.3,5.9,6.5,7.1,4,18.9-1.3,27-2.2,3.4-4.9,6.9-4.9,11s4.5,8.3,7.8,6c1.4-1,2.1-2.7,2.7-4.4,6-18,6.1-38,.3-56.1-2.8-8.6-6.7-18.9-1.1-26,2.3,4.3,3.1,9.5,2,14.4-.6,2.7-3,5.9-5.4,4.5-.9-.5-1.4-1.6-1.8-2.6-2.2-6.6-.2-14.5,4.8-19.2,13.8,20.9,23.7,44.6,28.7,69.4,4.8,23.4,5.4,47.5,5.9,71.4l2.3,100.9c2.5-13.5,5.6-26.9,10.4-39.8,3.5,4.2,6.9,8.3,10.4,12.5-1-7.9-1.6-15.8-1.9-23.7,2.7,3.8,6.2,7.8,10.8,7.9,4.7,0,8.3-4.1,12.8-5.4,1.3-.4,2.9-.3,3.6.8.4.7.3,1.5,0,2.2-1.3,4.7-6.6,6.8-10.8,9.1-4.2,2.3-8.4,7.5-5.8,11.7.8,1.3,2.1,2.2,2.6,3.6,1,2.9-2.1,5.6-5.1,6.4-5.7,1.4-11.6-.7-17.3-2.2-1.2-.3-2.4-.6-3.6-.3-5.5,1.4-2.5,11.5-7.2,14.9-1.9-11.1-5.8-21.9-11.5-31.6-5.1,3-10.2,5.9-15.4,8.9,3.4-4.4,3.4-10.8,1.1-15.9s-6.3-9.1-10.7-12.5c-1.3-1-2.9-2-4.3-1.3-1.9.9-1.6,3.7-1,5.7,3.3,11.1,6.9,22.7,15.4,30.5,4,3.6,9,6.5,11.3,11.4,3.2-3.3,8.5-6.7,11.8-3.5,2.5,2.4,1.4,6.7.1,10,1.3,1.4,4.1.5,4.4-1.4"/>
</svg>