<?xml version="1.0" encoding="UTF-8"?>
<svg id="beruflicher_stress" xmlns="http://www.w3.org/2000/svg" version="1.1" viewBox="0 0 250 350">
  <!-- Generator: Adobe Illustrator 30.2.1, SVG Export Plug-In . SVG Version: 2.1.1 Build 1)  -->
  <defs>
    <style>
      .st0 {
        fill: none;
        stroke: #000;
        stroke-miterlimit: 10;
      }
    </style>
  </defs>
  <path class="st0" d="M131.7,126.7c10.6-40.9,45.3-81.2,87.5-79.6,3.2.1,6.6.5,9,2.7,4.3,3.9,2.2,11.6-2.6,15s-10.9,3.7-16.7,4.1c-11.8.8-23.7,2.4-34.6,7s-20.8,12.5-25.7,23.2c-1.2,2.5-2.1,5.3-3.8,7.5-1.8,2.3-4.4,3.9-6.8,5.4-14.3,9.1-27.3,20.5-38.2,33.5-7.8,9.3-14.8,19.9-17,31.8-1.3,7.5-.5,15.7,4,21.8,4.6,6.1,13.5,9.2,20.2,5.6,4.6-2.5,7.3-7.3,9.5-12,10-20.7,15.8-43.4,17-66.4.1-2,.2-4.1,1.3-5.7s3.6-2.5,5.1-1.3c1.6,1.3,1.2,3.8.6,5.8-3.7,11.6-9.4,22.4-14.2,33.5-4.7,11.2-8.5,23.1-8,35.2.6,12.1,6.2,24.6,16.7,30.7s25.9,4,32.3-6.3c4.4-7.1,4.1-16.1,2.3-24.3-5.8-27-24.5-49.3-33.6-75.3,10.4,4.3,16,15.8,17.7,26.8s.8,22.5,2.6,33.5c2.3,13.7,9,26.6,19,36.2,6.6,6.4,15.1,11.5,24.3,11.7s18.9-6,20.4-15.1c1.3-7.2-2.6-14.3-6.8-20.3-19-27.1-47.8-45.3-71.8-68-1.9-1.8-3.9-3.7-4.6-6.2s0-5.7,2.4-6.8c2.3-1,4.9.2,6.9,1.7,10.2,7.4,16.5,18.9,22.7,29.9,8.9,15.9,16.6,30.9,32.6,36.6,9.5,3.4,21.2,5.7,28.6-1.2,6.4-6.1,1.1-13.5-1-15.8-23.1-24.5-48.2-46.8-81.7-42.8-3.2.4-6.6.9-9.6-.2s-5.7-4.3-4.7-7.4c.9-3.1,4.6-4.4,7.8-5.1,20.2-4.4,51.5-5,71.9-1.8,5.6.9,11.5,2,16.9.3,5.4-1.8,9.9-7.7,7.9-13-1.8-4.7-7.5-6.5-12.4-7.6-11.9-2.7-34.2-5.4-46.4-5.4s-18.4,11.5-28.1,19c-8.4,6.4-14.5,15-25.2,17.8s-15.5,5.2-24.7,11.9c-8.8,6.4-14.7,17.1-17.4,27.5-.4,1.6-.9,3.5-2.3,4.4-1.2.7-2.7.5-3.8,1.3-1.1.7-1.6,1.9-2,3-13.5,35.3-11,74.5-8.5,111.4s3.7,35.7,5.7,53.5.7,15.8,2.5,23.1c-4.7-20.2-16.7-37.3-27.5-55-10.8-17.7-20.5-37.5-18.8-58.2.2-2.7.8-5.5,2.7-7.4,3-2.8,8.1-1.9,11.1.9s4.4,6.8,5.7,10.7c6,18.1,12.1,36.3,18.1,54.4,2.4,7.2,4.8,14.5,5.8,22.1-.2-13.9,2.2-27.8,7.1-40.8,1.5-3.9,3.3-7.9,6.7-10.2,3.4-2.3,8.9-2.1,11,1.4,1.6,2.7.9,6.1,0,9.1-3.6,12.4-7.9,24.6-13.1,36.5-3.9,9-8.6,18.1-16.4,24.1,3.7-4.4,7.4-8.8,11.1-13.2"/>
  <path class="st0" d="M44.3,69.9c4.1,7.6,12.5,12.9,21.1,12.9,4.5,0,9-1.5,12.2-4.6,3.5-3.5,4.8-8.5,5-13.4.4-12.2-9.6-32.2-24.1-31.6s-20.3,25.3-14.1,36.8Z"/>
  <path class="st0" d="M79.4,82.1c5.1,7.2,15.9,20.6,22.3,28.7"/>
  <path class="st0" d="M89,63.1c10.1,3.1,20.3,6.2,30.4,9.3"/>
  <path class="st0" d="M81.8,42.4c5.9-3.2,11.5-7.6,17.8-11.8"/>
  <path class="st0" d="M55.3,27.6c.9-5.6,1.5-11.2,1.8-16.8.3.2.2.7-.2.7"/>
  <path class="st0" d="M43.5,35.9c-7.4-8.7-13.5-17.3-20.6-25.2"/>
  <path class="st0" d="M36.1,54.5l-19-7.2c.6,0,1.2,0,1.8.4"/>
  <path class="st0" d="M39,71.3c-4.3,2.9-10.4,7.5-17.6,12.2"/>
  <path class="st0" d="M51.5,86c-3.5,14.9-5.7,30.1-9.3,46"/>
</svg>