<?xml version="1.0" encoding="UTF-8"?>
<svg id="störung" xmlns="http://www.w3.org/2000/svg" version="1.1" viewBox="0 0 250 350">
  <!-- Generator: Adobe Illustrator 30.2.1, SVG Export Plug-In . SVG Version: 2.1.1 Build 1)  -->
  <defs>
    <style>
      .st0 {
        fill: none;
        stroke: #000;
        stroke-miterlimit: 10;
      }
    </style>
  </defs>
  <path class="st0" d="M132.6,353.4c-9.3-10-18.3-20.3-26.9-30.9-10.4-12.7-20.6-26.5-23.4-42.3-.5-2.7-.6-5.9,1.7-7.7,1.3-1,3.1-1.3,4.8-1.1,6.9.5,11.8,6.4,15.4,11.9,12.6,19.1,21,40.6,24.8,62.7-7.8-40.9-5.6-85.6,18.9-120.3,2.3-3.2,5.4-6.6,9.5-6.3-.1,38.2-6.4,76.4-18.5,112.8-1.8,5.5-4.9,11.9-11,12.6-24.3-69.8-29.1-145.5-13.7-217.5-7.3-3.2-13.6-8.5-17.7-15-6.4,9-13.6,17.6-21.4,25.7.5-9.1-1.1-18.3-4.8-26.7-11.5,14.8-22.9,29.6-34.4,44.5-2.4-17.5-.2-35.5,6.4-51.9,12.9-2.4,25.5-6.4,37.3-11.8.2,7.6-.5,15.3-2.2,22.7,3.4-7.4,8.3-14.2,14.4-19.9,6.2,6.2,12.1,12.7,17.6,19.4-5.7-10.3-9.6-21.4-11.5-32.8-6.9.4-13.8,1.7-20.4,3.8,7.1-9.8,11.9-21.2,13.7-32.9-4.5.1-8.5-3-10.5-6.7s-2.6-8-3.1-12.2c8.7-4.5,19.6-5,28.7-1.2-5,11.5-8.5,23.5-10.6,35.7,3.9-.5,7.1-3,10.6-4.4s8.5-1.5,10.5,1.7c2,3.2-.5,7.3-3.5,9.8s-6.6,4.8-7.5,8.4c2.3-3.5,8.6-2.3,10.9,1.3s1.8,8,1.1,12.1c-1.1,7.2-2.1,14.5-3.2,21.7,5.6-19.5,15.2-38,28-54.2-7,1-14.5-1.1-19.8-5.5,10.3-3,20.7-5.5,31.2-7.5-2.3-5.4-4.7-10.8-7-16.2-.6-1.4-1.2-2.9-.8-4.3,1-3.4,6.1-3.2,9.8-2.3,9.5,2.3,18.9,4.7,28.4,7-10,2.1-19.2,7.6-25.6,15.1,8.6,1.5,16.4,6.2,21.4,12.9-11.7,3.4-24.2,4.2-36.3,2.4,4.5,3.7,7.8,8.7,9.2,14.2.4,1.6.6,3.4-.4,4.8-1.2,1.8-3.8,2.1-6,2.5-8.7,1.4-16.8,6-22.3,12.5,15.6-8,33.2-12.6,50.9-13.4-7.5.4-14.9,2.8-21,7,11.6,1.4,22.9,4.3,33.7,8.7.4-3.5,3.3-6.6,7-7.4,3.7-.8,7.8.9,9.7,3.9,1.9,3,1.7,6.7,1.4,10.2-.9,9.8-1.7,19.6-2.6,29.5-1.3-9.1-4.3-18.1-8.9-26.2-1,7.6-4.7,14.9-10.3,20.4-.9.8-1.9,1.7-3.1,1.7-2.2,0-3.3-2.4-3.8-4.4-2.6-9.8-5.3-19.7-7.9-29.5-1.7,3.3-3.5,6.8-6.5,9.2-3,2.4-7.5,3.6-11,1.8-4.6-2.4-5.4-8.7-9.9-11.3-1.7,2-2.8,4.4-3.3,6.9,8.3,3.4,16.3,7.5,23.7,12.4,2.2,1.4,4.6,3.4,4.2,5.9-.3,2-2.3,3.4-4,4.7-4.8,3.4-9,7.6-12.2,12.3-.7,1.1-1.4,2.4-1,3.6.8,2.1,3.9,1.9,6.2,1.4,6.6-1.3,13.5-1.5,20.2-.6,2.8.4,6.2,1.6,6.3,4.2.2,3.9-6.1,4.4-8.8,7.3-3.3,3.6.3,9.3,4.8,11.5s9.9,2.5,14,5.2c-11.2,4.3-22.5,8.6-33.7,12.9,1.8-5.9,3.6-11.8,5.4-17.8.2-.8.5-1.7.2-2.5-.6-1.6-2.9-1.8-4.7-1.7-10.1.5-20.1,1-30.2,1.5,5.9-7.8,11.7-15.7,17.6-23.5-3.9,0-7.7,0-11.6,0-1.8,0-4.1-.2-4.8-1.9-.5-1.4.6-2.8,1.6-3.9,3.9-4.3,7.8-8.6,11.7-12.9.9-1,1.9-2.4,1.4-3.6-.4-1-1.5-1.5-2.5-1.8-4.9-1.8-10.4-2.4-15.6-1.8,3.7.8,7.2,2.6,9.9,5.2-6.2,4.2-13.3,7.2-20.7,8.7,4.1,1.2,8,3.2,11.3,5.8-4.7,3.8-10.3,6.6-16.2,8.2,5.1,5.1,9.9,10.5,14.2,16.2,1.3,1.7,2.6,4,1.5,5.8-.7,1.2-2.1,1.8-3.4,2.3-4.6,1.8-9.1,3.6-13.7,5.4,7.8,9.3,16.3,18.1,25.4,26.3-18.6-6.8-37.4-13.7-53.8-24.3,11.2,1.5,22.8,0,33.2-4.3-8.8-3.3-17.2-7.6-25-12.8-1.6-1.1-3.3-2.4-3.3-4.2,0-2.8,3.6-4,6.5-4.5,5.9-1,11.8-2,17.7-3-7.7-3.5-14.3-9.2-18.7-16.1,12.4-2.1,24.3-6.7,34.8-13.3-6.9-2.3-14.3-2.9-21.5-2,3.7,4.2,8.8,7.2,14.5,8.7,2.9.7,6.4.9,8.3-1.2,2.6-2.8.4-7.1-2.4-9.6-4.1-3.6-9.6-5.8-15.2-5.9,1.5,4.5,6.4,7.8,11.5,7.8-.5.8-2,.4-2.2-.4s1.3-1.6,2-1"/>
</svg>