<?xml version="1.0" encoding="UTF-8"?>
<svg id="mainMohn" xmlns="http://www.w3.org/2000/svg" version="1.1" viewBox="0 0 300 630">
  <!-- Generator: Adobe Illustrator 30.2.1, SVG Export Plug-In . SVG Version: 2.1.1 Build 1)  -->
  <defs>
    <style>
      .st0 {
        fill: none;
        stroke: #20726d;
        stroke-miterlimit: 10;
      }
    </style>
  </defs>
  <path class="st0" d="M210.6,615.5c2.3-49.6-6-101.5-6.1-151.5-.2-53,18.8-168.5-.1-226.8-5-15.5-23.1-36.5-31.7-32.4-5.3,2.5,8.1,17,16.1,13.6,8-3.4,8.9-16.6,1.5-21-15.9-9.5-37,21.9-51,9.7-2.7-2.4-4.1-5.9-6.4-8.6-5.9-6.8-16.2-6.8-25.2-6.4-18.3.9-36.6,1.8-54.9,2.7-10.4.5-21.3.9-30.7-3.6-9.4-4.5-16.3-15.8-12.5-25.5,5.3-13.2,25.3-14,32.8-26.1,2.7-4.4,3.5-9.8,6.5-14.1,8.5-11.9,27-6.4,40,.3,16.6,8.5,41.9,27.7,49.8,25.4,7.9-2.4-3-16.4-9.5-21.6-22-17.6-53.8-5.8-81.7-1.5-2.7.4-5.5.7-8-.4-7.4-3.3-4.6-14.3-.6-21.3,7.8-13.6,16.3-26.9,25.3-39.7,9.6-13.6,21.5-27.7,37.9-30.1,5.3-.8,11.1-.1,15.4,3.1,4.8,3.6,6.8,9.7,8.6,15.5,7.5,24,14.7,73.7,22.5,71.9,7.7-1.8-18.7-61.7-28-92.5-2.5-8.1-4-18.9,3.2-23.4,3.3-2,7.4-1.9,11.2-1.7,34.8,1.5,66,16.6,99.9,5.8s8.8-1,10.7-.2c5.8,2.4,7.2,10.5,4.7,16.3-2.5,5.7-7.8,9.7-12.7,13.6-26.9,21.4-73.1,72.7-67.2,77.5s38.7-53,58-79.5c3.4-4.7,7-9.5,12.1-12.2s12.2-2.6,15.9,1.8c4.1,4.8,2.8,12.5,7.1,17.1,7,7.5,22,.3,28.7,8.1,6.4,7.5-2.2,18-9.1,25-18.4,19-27.1,45-38.3,69-11.1,24-27.3,48.3-52.5,56.4,0-21.2,14.2-39.7,29-54.9,14.8-15.3,31.4-30,38.8-49.9,7.4-19.9,1.2-46.9-18.8-54-4.1-1.4-8.7-1.9-12.7-.4-7.6,2.8-11.2,11.3-14.2,18.8-11.1,27.8-25.9,54.1-43.8,78.1-7.5,10-22.1,20.2-30.8,11.3-6.8-6.9.7-17.5,9.6-21.3,8.9-3.8,25.8-7.3,29.1,2.9s-16.1,17.3-28.5,19.1c-12.4,1.8-24.8-2-36.8-5.7,5.9,9.6-6.3,20-16.6,24.8-20.8,9.6-44.1,19.4-65.8,12-3.4-1.1-6.8-2.9-8.6-5.9-4.6-7.6,3.2-16.6,10.5-21.7,15.7-11.1,32.4-20.7,49.9-28.6,3.3-1.5,6.7-2.9,10.3-2.9,8.6,0,14.8,8.3,17.7,16.4s3.9,17.1,8.8,24.1c10.5,15,33.8,15.3,45.6,29.3,5.6,6.7,12,9.7,19.1,14.7,23.7,16.6,28.5,65,31,98.3,7.5,97.3-25.4,117.3-17,228.4-4.3-19.3-12-38.8-20.3-56.7,3.3,22,15.5,41.9,18.9,63.9-7.3-22.4-17.1-44-29-64.4,5,15.6,9.9,31.2,14.9,46.8,1.9,5.9,3.8,12,3.3,18.2-10.8-19.7-17.9-41.5-31.5-59.3,10,21.3,21.3,42.1,33.8,62.1"/>
</svg>