<?xml version="1.0" encoding="UTF-8"?>
<svg id="Ebene_2" data-name="Ebene 2" xmlns="http://www.w3.org/2000/svg" viewBox="0 0 73.38 141.74">
  <defs>
    <style>
      .cls-1 {
        fill: none;
        stroke: #20726d;
        stroke-miterlimit: 10;
      }
    </style>
  </defs>
  <g id="Ebene_4" data-name="Ebene 4">
    <path class="cls-1" d="M45.58,139.48c.9-16.86-2.57-34.06-10.06-49.77-2.31-4.85-6.56-10.38-12.16-9.65-6.67.87-7.61,9.31-6.18,15.44,3.92,16.8,13.32,32.67,26.65,45-1.99-26.62,2.52-41.59,13.09-66.01,1.94-4.48,6.15-9.71,11.14-7.87,3.77,1.39,4.69,5.87,4.78,9.56.61,24.8-10.06,37.47-28.92,54.56-.07-12.13-.14-24.26-.21-36.38-.15-26.59,9.54-43.92-1.28-68.94-1.45-3.7-7.47-1.47-10.33,1.29-2.07,2-4,5.56-1.44,7.19,1.32.84,3.09.47,4.53-.09,6.41-2.49,11.09-8.21,11.94-14.61-5.1,1.19-9.52,4.4-11.94,8.65.82-1.31,1.63-2.63,2.45-3.94-3.83,2.52-4.2,7.76-2.77,12.01,1.44,4.24,4.27,8.03,5.81,12.25,2.07,5.68,1.62,12.03-1.22,17.25-.88,1.62-2.29,3.29-4.28,3.31-1.67.02-3.11-1.15-4.23-2.33-9.58-10.05-9.24-26.63.74-35.67-2.71,4.04-5.79,8.02-10.11,10.62s-10.13,3.6-14.93,1.46c-4.79-2.15-7.71-7.98-5.25-12.16,1.8-3.05,5.69-4.46,9.39-5.25,7.28-1.56,17.47.11,18.85,6.97-9.01-5.98-13.7-17.05-11.33-26.76.44-1.82,1.24-3.73,3.01-4.61,3.32-1.66,7.33,1.34,9.41,4.37,4.97,7.26,6.38,16.42,3.74,24.41.8-6.94,2.63-13.74,5.41-20.16.66-1.54,1.46-3.14,2.99-4,2.74-1.54,6.65.14,8.39,2.75,1.74,2.6,1.89,5.77,1.99,8.78.11,3.43.16,7.1-1.89,9.89s-7.05,3.91-9.52,1.26c5.24,2.96,10.51-3.8,16.49-4.45,6.87-.74,11.77,6.95,11.62,13.32-.06,2.55-.66,5.22-2.58,7-3.55,3.3-9.94,2.04-14.15-.82s-7.28-6.98-11.52-9.8c7.32-1.18,13.06,5.96,16.7,12.09,1.52,2.56,3.1,5.52,2.1,8.21-1.99,5.36-10.81,3.81-16.17.7-8.72-5.06-17.15-13.84-14.65-22.79.74-2.64,3-5.29,5.99-5.06s4.45,5.01,1.55,5.63"/>
  </g>
</svg>