<?xml version="1.0" encoding="UTF-8"?>
<svg id="Ebene_2" data-name="Ebene 2" xmlns="http://www.w3.org/2000/svg" viewBox="0 0 135.34 141.74">
  <defs>
    <style>
      .cls-1 {
        fill: none;
        stroke: #20726d;
        stroke-miterlimit: 10;
      }
    </style>
  </defs>
  <g id="Ebene_4" data-name="Ebene 4">
    <path class="cls-1" d="M41.52,111.63c-5.33.3-10.13-3.37-14.24-7.08C11.57,90.37-2.41,69.75,1.03,48.18c2.08-13.04,10.43-24.15,20.71-31.33,10.28-7.18,22.37-10.84,34.46-13.25C68.21,1.2,80.47-.05,92.7.73c8.62.55,17.35,2.18,25.02,6.53s14.19,11.71,16.31,20.73c1.79,7.6.36,15.61-1.83,23.04-6.8,23.11-21.14,43.49-39.95,56.77-12.25,8.65-26.8,14.4-41.5,13.15-10.49,5.43-19.87,12.49-28.81,20.42,3.42-3.99,17.63-29.63,19.59-29.74Z"/>
    <path class="cls-1" d="M53.01,56.42c-.77,6.25,1.81,12.88,7.21,16.99s13.62,5.33,20.01,2.51c15.63-6.91,10.38-24.59.58-33.55-12.23-11.17-26.2.97-27.8,14.05Z"/>
    <path class="cls-1" d="M77.82,41.01c2.45-3.16,4.89-6.31,7.34-9.47,1.83-2.37,4.32-5.02,7.56-4.72,3.37.31,5.27,3.97,4.4,6.85s-3.59,5.02-6.37,6.73-5.8,3.25-7.81,5.65c3.92-2.36,8.23-4.23,12.74-5.54,2.53-.73,5.99-.97,7.18,1.12.87,1.53-.13,3.37-1.35,4.69-3.24,3.5-8.31,5.62-13.43,5.62,2.97-.01,5.84-.91,8.8-1.16s6.33.35,7.96,2.54c2.21,2.98-.29,7.25-3.97,8.72s-7.94.96-11.93.36c5.06.35,9.86,2.95,12.49,6.78.94,1.37,1.63,2.93,1.56,4.53-.17,4.09-5.41,6.91-10.04,6.46s-8.51-3.25-11.64-6.28c4.52,3.17,7.37,8.1,7.62,13.18.13,2.62-.74,5.66-3.45,6.74-2.49.99-5.39-.13-7.68-1.44-5.23-2.98-9.97-8.73-7.11-13.6.53,4.96-.71,10.06-3.5,14.39-.75,1.16-1.66,2.32-3.02,2.93-2.55,1.14-5.83-.15-7.4-2.26s-1.81-4.76-1.75-7.28c.08-4.13.82-8.25,2.17-12.2-.18,3.87-4.91,6.98-9.23,6.23s-7.34-4.97-6.48-8.77,5.26-6.64,9.65-6.44c-6.44,1.23-13.62-1.68-16.74-6.8-1.64-2.68-1.83-6.63,1.14-8.2,1.45-.76,3.25-.73,4.93-.55,4.42.47,8.72,1.77,12.52,3.8-4.27-.27-7.88-3.14-9.81-6.51s-2.47-7.2-2.99-10.95c-.16-1.18-.3-2.47.4-3.49,1.6-2.3,5.62-1.28,8.21.16,3.13,1.75,6.09,3.75,8.82,5.96,1.04.84,1.31,3.02-.04,2.66-2.48-5.89-4.35-11.98-5.57-18.17-1.04-5.26,4.01-2.63,6.72-.84,4.23,2.8,8.15,7.42,9.98,11.78.61,1.45,1.03,3.06.47,4.52-1.12-.24-1.94-1.17-2.2-2.16s-.06-2.03.29-3.01c1.02-2.86,15.88-20.82,17.91-12.69,1.44,5.74-3.57,15.63-7.38,20.12Z"/>
  </g>
</svg>